<?xml version="1.0" standalone="no"?>
<!DOCTYPE svg PUBLIC "-//W3C//DTD SVG 20010904//EN"
 "http://www.w3.org/TR/2001/REC-SVG-20010904/DTD/svg10.dtd">
<svg version="1.0" xmlns="http://www.w3.org/2000/svg"
 width="100.000000pt" height="100.000000pt" viewBox="0 0 100.000000 100.000000"
 preserveAspectRatio="xMidYMid meet">
<metadata>
Created by potrace 1.14, written by Peter Selinger 2001-2017
</metadata>
<g transform="translate(0.000000,100.000000) scale(0.100000,-0.100000)"
fill="#000000" stroke="none">
<path d="M305 930 c-53 -27 -77 -63 -82 -119 -4 -51 7 -77 30 -68 11 4 14 16
11 44 -15 122 158 168 203 53 11 -27 22 -40 35 -40 42 0 -3 96 -62 129 -47 26
-84 27 -135 1z"/>
<path d="M689 840 c-20 -10 -49 -34 -65 -52 l-29 -33 -92 2 c-165 4 -276 -46
-347 -154 -24 -37 -30 -40 -47 -30 -30 19 -35 65 -9 92 21 22 20 45 -1 45 -5
0 -21 -11 -34 -25 -39 -38 -34 -88 12 -133 35 -35 37 -40 38 -108 1 -78 26
-133 83 -188 26 -24 29 -32 21 -53 -22 -60 -5 -91 64 -113 54 -17 83 -7 98 35
9 23 18 34 27 30 7 -3 50 -5 93 -5 80 0 80 0 90 -30 13 -37 39 -45 95 -30 58
16 78 40 71 84 -5 29 -1 37 24 55 16 12 43 41 60 64 23 32 38 43 62 45 45 3
57 25 57 102 0 75 -13 96 -64 102 -24 2 -31 9 -38 35 -8 33 -63 96 -106 123
l-22 15 18 67 c11 37 17 70 14 73 -10 10 -37 4 -73 -15z m16 -57 c-3 -10 -9
-35 -11 -55 -5 -34 -3 -39 34 -61 46 -30 92 -82 92 -106 0 -30 29 -60 63 -63
32 -3 32 -4 35 -60 3 -52 1 -58 -18 -59 -11 -1 -24 -3 -30 -4 -5 -1 -14 -3
-19 -4 -5 0 -21 -20 -36 -44 -15 -23 -45 -55 -67 -71 -38 -28 -40 -31 -35 -71
6 -40 5 -42 -27 -53 -48 -18 -53 -16 -66 23 l-12 35 -88 0 c-48 0 -101 3 -118
6 -27 6 -32 3 -48 -32 -10 -22 -19 -40 -20 -42 -1 -2 -21 2 -44 9 -44 13 -45
14 -24 86 5 17 -4 32 -36 65 -55 57 -71 90 -74 152 -8 136 65 227 219 271 47
14 79 16 152 11 88 -6 93 -5 104 16 15 27 28 41 54 56 27 15 28 15 20 -5z"/>
<path d="M708 529 c-30 -17 -16 -69 18 -69 14 0 44 27 44 40 0 10 -29 40 -38
40 -4 0 -15 -5 -24 -11z"/>
</g>
</svg>
